# xmcd
#
# Track frame offsets:
#	150
#	17870
#	35672
#	58617
#	77498
#	93923
#	112470
#	130922
#	147015
#	168170
#	190843
#
# Disc length: 2737 seconds
#
# Revision: 1
# Processed by: cddbd v1.5PL3 Copyright (c) Steve Scherf et al.
# Submitted via: CDex 1.50Beta5
#
DISCID=910aaf0b
DTITLE=斎藤誠 - Careless Memories
DYEAR=2002
DGENRE=Rock
TTITLE0=眠らない僕の想い
TTITLE1=RAIN
TTITLE2=Thread Of Shine
TTITLE3=君に贈る僕のラブソング
TTITLE4=恋は知らぬ間に
TTITLE5=素敵な最後
TTITLE6=I Surrender
TTITLE7=名もない橋
TTITLE8=Missing Serenade(with“my band”)
TTITLE9=横浜
TTITLE10=信じられない恋におちた
EXTD=
EXTT0=
EXTT1=
EXTT2=
EXTT3=
EXTT4=
EXTT5=
EXTT6=
EXTT7=
EXTT8=
EXTT9=
EXTT10=
PLAYORDER=
